<?xml version="1.0" standalone="no"?>
<!DOCTYPE svg PUBLIC "-//W3C//DTD SVG 20010904//EN"
 "http://www.w3.org/TR/2001/REC-SVG-20010904/DTD/svg10.dtd">
<svg version="1.0" xmlns="http://www.w3.org/2000/svg"
 width="8000.000000pt" height="5000.000000pt" viewBox="0 0 8000.000000 5000.000000"
 preserveAspectRatio="xMidYMid meet">

<g transform="translate(0.000000,5000.000000) scale(0.100000,-0.100000)"
fill="#000000" stroke="none">
<path d="M50835 19094 c-11 -2 -45 -9 -75 -15 -67 -14 -132 -46 -225 -110
-105 -73 -296 -274 -309 -325 -9 -36 15 -69 72 -98 74 -38 121 -46 295 -55
231 -12 270 -36 302 -190 20 -93 30 -117 61 -146 36 -34 77 -33 104 2 88 112
178 61 140 -78 -6 -20 -24 -54 -40 -74 -27 -34 -30 -45 -30 -114 -1 -42 -7
-94 -15 -116 -8 -21 -12 -41 -10 -43 12 -12 81 13 134 49 157 105 331 452 356
709 14 142 -35 287 -130 383 -127 130 -317 210 -526 221 -46 3 -93 3 -104 0z"/>
<path d="M26215 18013 c-71 -10 -156 -37 -235 -75 -68 -33 -100 -57 -170 -127
-152 -153 -222 -327 -334 -831 -88 -395 -131 -519 -228 -663 -70 -104 -83
-140 -82 -247 0 -74 5 -108 22 -151 26 -66 91 -163 112 -167 11 -2 27 35 59
135 54 173 104 281 143 312 61 49 231 102 387 121 108 14 145 32 176 84 68
117 118 438 81 527 -8 19 -17 79 -21 135 l-7 100 84 11 c103 14 181 41 241 82
90 61 170 175 218 309 l22 63 39 -38 c59 -57 86 -110 108 -214 27 -125 48
-186 66 -193 18 -7 18 -30 -2 -147 -27 -162 -83 -306 -134 -346 -8 -7 -38 -13
-67 -13 l-52 0 -7 -46 c-7 -51 1 -266 11 -301 6 -17 17 -23 54 -28 170 -23
288 -46 322 -63 l40 -20 -6 41 c-4 23 -16 76 -28 117 -30 103 -28 255 8 530
37 281 39 523 7 643 -62 226 -189 356 -414 421 -124 36 -310 53 -413 39z"/>
<path d="M45699 17887 c-37 -13 -92 -42 -123 -65 -159 -121 -401 -503 -562
-888 -205 -493 -265 -902 -164 -1110 l29 -60 -30 -78 c-45 -115 -81 -270 -159
-681 -75 -395 -117 -577 -154 -678 -60 -157 -185 -645 -247 -954 -38 -196 -39
-194 75 -237 l76 -29 0 -39 c0 -21 -5 -58 -11 -82 -12 -49 -76 -139 -102 -144
-16 -3 -17 1 -11 35 9 49 1 41 -26 -27 -12 -30 -30 -64 -39 -75 -27 -29 -33
-63 -12 -69 9 -3 102 -23 206 -46 105 -22 260 -56 345 -76 394 -89 746 -162
751 -156 5 6 159 716 159 734 0 4 -25 12 -55 18 -49 10 -55 14 -55 36 0 14
-12 36 -26 50 -18 19 -24 33 -20 53 3 14 7 80 11 146 12 276 26 510 30 513 2
2 66 -3 142 -12 181 -20 398 -31 457 -22 47 7 47 8 32 31 -28 42 -31 99 -7
147 67 140 257 77 239 -80 -3 -20 -8 -45 -13 -55 -9 -20 3 -19 103 11 52 16
53 17 69 71 11 39 14 75 10 126 -5 54 -2 85 12 130 11 33 24 79 30 102 l11 42
88 -70 c282 -227 544 -237 852 -33 127 84 327 281 356 351 21 49 17 122 -8
173 -13 25 -30 44 -38 44 -8 -1 -107 -20 -220 -42 -263 -53 -394 -69 -414 -53
-24 20 -87 161 -177 396 -28 72 -63 163 -79 202 l-28 73 67 67 c53 53 72 80
86 123 51 154 -6 313 -195 545 -111 135 -170 249 -206 396 -13 58 -18 124 -20
304 -2 209 -4 239 -27 326 -69 264 -189 451 -352 548 -93 56 -154 72 -315 82
-221 13 -267 11 -341 -14z m596 -426 c73 -45 129 -133 159 -248 47 -181 -22
-560 -119 -655 -23 -24 -36 -28 -81 -28 l-54 0 -2 -72 c-4 -122 0 -146 29
-199 38 -70 84 -106 171 -131 39 -12 72 -25 72 -29 0 -16 -84 -71 -175 -115
-121 -59 -217 -78 -360 -71 -125 6 -194 22 -302 72 -80 37 -243 141 -243 154
0 5 21 12 48 16 115 17 193 77 230 177 28 74 51 199 58 317 6 80 4 102 -10
129 -11 21 -19 69 -23 130 l-6 97 92 18 c50 9 114 28 142 42 93 48 213 192
290 348 18 37 38 67 44 67 5 0 24 -8 40 -19z m-1045 -3204 c39 -36 40 -40 31
-75 -6 -20 -11 -59 -13 -87 l-3 -50 130 -27 c72 -15 133 -27 137 -27 4 -1 5
-38 2 -83 -3 -46 -11 -201 -19 -346 l-15 -264 -30 -28 c-16 -15 -30 -32 -30
-38 0 -5 -48 2 -107 15 -60 13 -236 51 -392 84 -157 33 -287 61 -289 64 -2 2
35 75 84 162 167 301 354 680 408 828 6 16 12 11 37 -35 16 -30 47 -72 69 -93z
m294 -1013 c30 -29 20 -46 -21 -38 -49 8 -58 18 -38 38 21 20 39 20 59 0z"/>
<path d="M49634 15795 c-122 -7 -231 -18 -243 -24 -23 -13 -29 -41 -8 -41 86
0 692 32 696 36 3 3 -5 14 -18 25 -28 23 -85 23 -427 4z"/>
<path d="M46292 14150 c-12 -5 -29 -25 -38 -44 -50 -103 79 -207 131 -105 42
81 -18 178 -93 149z"/>
<path d="M49537 13013 c-4 -21 -13 -209 -22 -418 -81 -1973 -203 -3240 -417
-4323 -36 -183 -41 -217 -30 -244 15 -40 4 -54 -88 -113 -106 -69 -267 -130
-400 -150 -50 -8 -124 -38 -134 -54 -5 -8 -255 -11 -846 -11 l-840 0 -14 34
c-21 50 -77 82 -181 105 -230 50 -390 149 -447 278 -15 34 -23 43 -36 38 -9
-4 -42 -9 -72 -12 -63 -6 -187 30 -252 72 l-36 24 -7 -105 c-8 -113 -1 -375
10 -411 l7 -23 -431 0 -431 0 -10 25 c-9 24 -62 57 -112 69 -44 10 -93 61
-124 128 -27 61 -28 70 -35 278 -3 118 -7 215 -8 216 0 0 -27 7 -58 14 -97 21
-164 51 -208 91 l-42 39 -74 -85 c-125 -146 -152 -220 -110 -303 10 -21 49
-71 86 -112 65 -72 115 -155 115 -192 0 -30 38 -120 61 -144 l22 -24 -8072 0
c-7991 0 -8072 0 -8066 19 8 26 -16 41 -126 79 l-87 31 -63 -20 c-87 -27 -201
-35 -296 -20 -43 7 -151 37 -241 67 -89 30 -171 54 -181 54 -22 0 -31 -26 -31
-92 0 -64 7 -78 54 -99 40 -18 26 -19 -870 -19 l-911 0 -64 76 c-62 74 -66 77
-150 104 -157 52 -247 119 -380 282 -46 56 -102 122 -124 146 l-40 44 -41 -45
c-66 -73 -65 -117 5 -187 26 -26 91 -73 145 -104 65 -39 122 -83 174 -135 42
-42 110 -101 151 -129 l74 -52 -451 0 -450 0 -7 42 c-11 64 -55 102 -133 116
-64 11 -91 26 -175 95 l-48 40 -22 -21 c-44 -41 -113 -64 -185 -60 -63 3 -66
2 -73 -22 -4 -14 -7 -62 -8 -107 l-1 -83 -515 0 c-484 0 -515 1 -515 18 0 34
-40 82 -94 112 -60 34 -76 63 -76 134 0 42 0 42 -34 38 -47 -5 -128 23 -181
64 l-44 33 -62 -82 c-67 -89 -92 -137 -83 -161 7 -18 83 -69 174 -117 l64 -34
-9944 -5 c-5631 -3 -9951 -9 -9959 -14 -7 -5 -19 -24 -27 -43 -19 -45 -9 -98
23 -123 26 -20 150 -20 37184 -20 27211 0 37165 3 37182 11 54 25 64 114 18
160 l-29 29 -2866 0 c-1576 0 -2866 2 -2866 5 0 3 15 26 34 52 61 87 121 227
154 362 7 33 11 35 72 47 133 27 298 129 393 244 91 109 152 291 145 432 l-3
63 -2551 3 -2550 2 -23 48 c-152 313 -458 496 -736 439 -209 -43 -399 -200
-516 -427 l-34 -65 -3562 3 -3563 2 -31 63 c-70 139 -184 275 -289 347 -147
100 -276 140 -475 147 -407 15 -676 -142 -825 -481 l-34 -76 -318 0 -318 0 0
-380 0 -380 238 0 c130 0 315 -3 410 -7 156 -6 172 -8 172 -24 0 -65 92 -282
157 -371 l35 -48 -2700 0 c-2564 0 -2701 1 -2705 18 -14 47 -18 114 -8 126 32
38 221 3072 221 3547 l0 146 -150 -38 c-369 -95 -700 -127 -995 -99 -103 10
-363 56 -382 68 -14 9 -22 349 -23 967 l0 491 -122 12 c-156 15 -330 45 -482
82 -65 17 -120 30 -121 30 -1 0 -5 -17 -8 -37z m1242 -3633 c111 -811 205
-1485 208 -1497 3 -13 11 -23 19 -23 18 0 18 -10 -2 -92 l-17 -68 -655 0 -654
0 6 23 c3 12 6 41 6 63 0 36 3 43 25 48 31 8 62 56 121 188 188 426 465 1325
583 1898 38 189 58 320 76 509 15 164 64 447 75 434 4 -5 98 -672 209 -1483z
m6734 -340 c160 -76 280 -287 308 -540 28 -256 -57 -532 -205 -667 -82 -75
-134 -97 -231 -98 -101 0 -153 23 -236 102 -89 85 -143 184 -186 343 -25 92
-24 348 0 440 24 87 62 182 93 233 33 52 118 141 162 169 85 53 206 60 295 18z
m8690 -5 c124 -61 232 -220 278 -410 18 -70 22 -120 22 -225 0 -105 -4 -155
-22 -225 -46 -190 -153 -348 -278 -410 -50 -25 -70 -30 -138 -30 -104 0 -167
30 -252 118 -70 72 -121 166 -160 294 -24 80 -26 103 -26 253 0 150 2 173 26
253 51 167 143 306 245 369 91 56 207 61 305 13z m-863 -891 l155 -6 16 -67
c24 -96 74 -211 130 -296 l49 -75 -2196 0 -2196 0 35 48 c63 86 136 254 161
373 l6 25 1842 2 c1014 2 1913 0 1998 -4z m4408 -81 c27 -102 87 -234 137
-304 19 -27 35 -51 35 -54 0 -3 -705 -5 -1566 -5 l-1566 0 35 48 c66 90 153
296 159 378 l2 24 1371 0 1370 0 23 -87z m-9727 9 c24 -97 73 -211 130 -297
l49 -75 -1045 0 -1045 0 39 58 c71 105 93 156 157 370 3 9 182 12 851 12 l848
0 16 -68z"/>
<path d="M22510 12722 c-83 -28 -114 -47 -159 -98 -60 -69 -76 -129 -76 -294
0 -74 6 -210 14 -302 17 -200 10 -254 -45 -320 -78 -93 -81 -125 -19 -243 43
-80 45 -89 43 -158 -3 -104 28 -152 124 -192 31 -12 36 -13 32 -1 -8 21 117
148 197 202 73 48 170 91 230 100 36 6 36 6 69 109 l32 103 -37 34 c-36 33
-37 35 -26 72 8 32 7 48 -11 95 -11 31 -23 71 -25 88 -5 28 -2 34 22 43 18 7
39 7 63 0 45 -12 48 -8 55 81 11 131 48 169 146 148 106 -22 286 5 346 53 36
28 65 92 65 147 0 144 -194 254 -445 253 -67 0 -122 -7 -166 -20 l-66 -18 -30
35 c-73 88 -214 123 -333 83z"/>
<path d="M64583 12512 c-63 -23 -115 -61 -154 -115 -55 -76 -59 -109 -59 -463
0 -306 1 -326 21 -380 26 -70 86 -137 154 -172 47 -26 58 -27 190 -27 137 0
141 1 194 30 62 34 113 90 138 151 l18 44 223 0 c122 0 222 3 222 6 0 3 -58
148 -129 322 -70 174 -152 377 -182 451 l-54 134 -6 -177 c-4 -98 -9 -180 -12
-183 -12 -11 -46 62 -52 111 -15 111 -78 202 -178 253 -46 23 -66 27 -167 30
-93 3 -125 0 -167 -15z"/>
<path d="M69710 12512 c-37 -12 -54 -23 -53 -33 2 -8 98 -219 214 -469 116
-250 222 -480 236 -510 l24 -55 24 27 c13 15 33 53 45 84 20 55 21 71 18 398
l-3 341 -28 57 c-32 65 -90 122 -156 151 -66 29 -243 34 -321 9z"/>
<path d="M67286 10650 c-42 -13 -105 -78 -112 -117 -4 -20 12 -129 41 -290 51
-278 65 -321 132 -385 65 -63 104 -74 353 -98 124 -11 361 -34 526 -50 344
-34 384 -36 423 -15 29 14 61 68 61 102 0 10 -32 135 -70 277 -74 271 -91 310
-149 341 -23 11 -1151 247 -1170 244 -3 0 -19 -5 -35 -9z"/>
<path d="M71040 10622 c-37 -38 -41 -52 -85 -362 -33 -230 -37 -271 -26 -308
22 -78 17 -77 359 -13 404 76 399 72 277 255 -36 54 -89 126 -118 161 -63 76
-329 295 -358 295 -11 0 -33 -13 -49 -28z"/>
<path d="M68942 10368 c-46 -50 -45 -87 14 -380 29 -149 59 -287 65 -307 20
-60 65 -118 112 -140 43 -21 53 -21 738 -21 661 0 695 1 725 19 53 33 62 68
95 378 35 333 35 410 -1 448 l-23 25 -852 0 -852 0 -21 -22z"/>
<path d="M22640 9809 c0 -2 -27 -121 -59 -264 l-59 -260 63 -61 c111 -108 297
-178 513 -191 94 -6 104 -4 121 14 16 16 37 21 122 26 61 4 142 17 196 31 86
24 234 77 259 94 18 11 -78 508 -97 504 -8 -2 -48 -13 -89 -23 -160 -42 -332
-34 -607 27 -92 20 -284 76 -349 101 -8 3 -14 4 -14 2z"/>
</g>
</svg>
